<svg xmlns="http://www.w3.org/2000/svg" width="137" height="28" viewBox="0 0 137 28" fill="none"><g id="Layer_1" clip-path="url(#clip0_118_646)"><g id="Group"><path id="Vector" d="M0 10.7402H4.81472L9.55741 23.3052L14.1539 10.7402H18.8726V27.8515H15.3761V16.3865L10.9281 27.8515H7.94668L3.49864 16.3865V27.8515H0V10.7402Z" fill="#E71F01"></path><path id="Vector_2" d="M29.4078 15.2888H32.854V27.8538H29.7984L29.4798 26.3391C28.6722 27.3169 27.5722 28.0022 25.7891 28.0022C23.1984 28.0022 20.8019 26.7058 20.8019 22.2577V15.291H24.2482V21.7928C24.2482 24.0409 24.9815 25.1409 26.6927 25.1409C28.4038 25.1409 29.4056 23.8946 29.4056 21.5724V15.291L29.4078 15.2888Z" fill="#E71F01"></path><path id="Vector_3" d="M34.7594 10.7402H38.2057V27.8515H34.7594V10.7402Z" fill="#E71F01"></path><path id="Vector_4" d="M40.3271 11.7683H43.7733V15.2888H46.6325V18.1981H43.7733V23.6982C43.7733 24.5777 44.116 24.9444 44.9956 24.9444H46.7809V27.8537H43.9218C41.5253 27.8537 40.3293 26.6555 40.3293 24.2613V11.7705L40.3271 11.7683Z" fill="#E71F01"></path><path id="Vector_5" d="M48.0992 12.0127C48.0992 10.8887 48.9788 10.0571 50.1028 10.0571C51.2268 10.0571 52.1064 10.8887 52.1064 12.0127C52.1064 13.1367 51.2268 13.9443 50.1028 13.9443C48.9788 13.9443 48.0992 13.1127 48.0992 12.0127ZM48.3676 15.2887H51.8379V27.8537H48.3676V15.2887Z" fill="#E71F01"></path><path id="Vector_6" d="M56.3187 27.8515L62.576 10.7402H66.9761L73.1855 27.8515H69.2503L67.9299 24.1106H61.428L60.1076 27.8515H56.3187ZM62.4058 21.1532H66.9281L64.6538 14.6514L62.4058 21.1532Z" fill="#E71F01"></path><path id="Vector_7" d="M73.993 10.7402H77.4392V27.8515H73.993V10.7402Z" fill="#E71F01"></path><path id="Vector_8" d="M91.7153 24.9444V27.8538H89.9562C88.1709 27.8538 87.61 26.9982 87.634 25.8C86.7544 27.1925 85.482 28 83.5264 28C80.8135 28 78.8579 26.7036 78.8579 24.3093C78.8579 21.6444 80.8615 20.1297 84.6264 20.1297H87.1189V19.5186C87.1189 18.3946 86.3113 17.6613 84.8708 17.6613C83.5264 17.6613 82.6228 18.2724 82.4744 19.2021H79.1504C79.3948 16.7577 81.6429 15.1448 84.9691 15.1448C88.4895 15.1448 90.5171 16.7097 90.5171 19.715V24.1631C90.5171 24.8222 90.7856 24.9444 91.3247 24.9444H91.7153ZM87.1189 22.4258H84.6002C83.1575 22.4258 82.326 23.0129 82.326 24.0627C82.326 24.9423 83.0353 25.5054 84.1833 25.5054C85.9927 25.5054 87.0927 24.3813 87.1167 22.6702V22.4258H87.1189Z" fill="#E71F01"></path><path id="Vector_9" d="M100.221 15.2888V18.4186H98.8523C96.7985 18.4186 96.0172 19.7871 96.0172 21.6946V27.8538H92.5709V15.2888H95.7007L96.0194 17.1702C96.7047 16.0462 97.6825 15.2888 99.638 15.2888H100.225H100.221Z" fill="#E71F01"></path><path id="Vector_10" d="M120.951 20.6405V27.8516H117.504V20.8369C117.504 18.9555 116.819 17.9777 115.328 17.9777C113.838 17.9777 112.836 19.0777 112.836 20.9853V27.8538H109.39V20.8391C109.39 18.9577 108.704 17.9799 107.19 17.9799C105.675 17.9799 104.721 19.1279 104.721 21.0115V27.856H101.275V15.291H104.282L104.601 16.8559C105.358 15.8781 106.458 15.1688 108.292 15.1448C109.833 15.1208 111.273 15.6817 112.057 17.2706C112.936 15.9261 114.403 15.1448 116.311 15.1448C118.901 15.1448 120.955 16.6115 120.955 20.6448L120.951 20.6405Z" fill="#E71F01"></path></g><path id="Vector_11" d="M128.937 17.2531C128.472 17.2531 128.046 17.1352 127.623 16.8144L122.594 13.0168C122.051 12.6064 121.728 11.956 121.728 11.2773V2.18037C121.728 0.977785 122.705 0 123.908 0H133.967C135.17 0 136.148 0.977785 136.148 2.18037V11.2773C136.148 11.956 135.825 12.6064 135.281 13.0168C135.281 13.0168 130.622 16.5394 130.251 16.8166C129.88 17.0938 129.399 17.2553 128.937 17.2553M123.908 1.67184C123.626 1.67184 123.4 1.89882 123.4 2.18037V11.2773C123.4 11.4366 123.476 11.5872 123.602 11.6832L128.631 15.4809C128.812 15.6162 129.063 15.6184 129.244 15.4809L134.275 11.681C134.402 11.585 134.478 11.4344 134.478 11.2751V2.18037C134.478 1.89882 134.249 1.67184 133.97 1.67184H123.91H123.908Z" fill="#E71F01"></path><path id="Vector_12" d="M128.937 11.5457C130.58 11.5457 132.027 10.6203 132.878 9.21258L131.497 8.18896C130.958 9.17984 130.013 9.83898 128.937 9.83898C127.861 9.83898 126.916 9.17984 126.376 8.18896L124.995 9.21258C125.846 10.6203 127.293 11.5457 128.937 11.5457Z" fill="#E71F01"></path></g><defs><clipPath id="clip0_118_646"><rect width="136.148" height="28" fill="white"></rect></clipPath></defs></svg>